<svg id="Layer_1" data-name="Layer 1" xmlns="http://www.w3.org/2000/svg" viewBox="0 0 48.18 64.34"><defs><style>.cls-1{fill:#467336;}.cls-2{fill:#fff;}</style></defs><path class="cls-1" d="M30.58,3.55H10.15A5.45,5.45,0,0,0,4.71,9V61.85a6,6,0,0,0,6.05,6,3.38,3.38,0,0,0,.83-.11c2.05-.51,4.09-2.81,7.82-4.93a27.71,27.71,0,0,1,6.49-2.64V43.08l4.3,0c12.65,0,22.7-6.49,22.7-20C52.89,11,43.86,3.55,30.58,3.55Z" transform="translate(-4.71 -3.55)"/><path class="cls-2" d="M40.53,16.74V10.11H11.59V67.78c2.05-.51,4.09-2.81,7.82-4.93V35H31.49V28.34H19.41V16.74Z" transform="translate(-4.71 -3.55)"/></svg>